<svg xmlns="http://www.w3.org/2000/svg" width="147" height="25" viewBox="0 0 147 25">
  <defs>
    <style>
      .cls-1 {
        fill: #f6f6f6;
        fill-rule: evenodd;
      }
    </style>
  </defs>
  <path id="logo.svg" class="cls-1" d="M158.028,27.18v0.1a3.133,3.133,0,0,0,3.272,3.394,2.722,2.722,0,0,0,2.789-1.657h1.769c-0.308,1.857-2.232,3.193-4.6,3.193-3.117,0-5.083-2.118-5.083-5.472s1.976-5.553,5-5.553c2.963,0,4.815,2.038,4.815,5.312V27.18h-7.964Zm3.118-4.458a3.07,3.07,0,0,0-3.118,3.062h6.1A2.9,2.9,0,0,0,161.146,22.721Zm-11.31,7.932a2.64,2.64,0,0,0,2.881-2.009h1.76c-0.3,2.109-2.12,3.564-4.651,3.564-3.045,0-5.083-2.108-5.083-5.512,0-3.323,2.027-5.512,5.063-5.512,2.747,0,4.424,1.727,4.65,3.625H152.7a2.672,2.672,0,0,0-2.881-2.069c-1.935,0-3.251,1.567-3.251,3.956C146.565,29.157,147.9,30.654,149.836,30.654Zm-8.5-11.115a1.1,1.1,0,1,1,0-2.209A1.1,1.1,0,1,1,141.336,19.538Zm-8.9,12.571-4.095-10.824h1.872l3.108,8.937h0.041l3.117-8.937h1.862l-4.095,10.824h-1.81Zm-6.165-9.248a2.334,2.334,0,0,0-2.388,2.55v6.7h-1.79V21.285h1.688v1.757h0.041a2.671,2.671,0,0,1,2.685-1.858,3.468,3.468,0,0,1,.69.07v1.727A3.547,3.547,0,0,0,126.269,22.862ZM111.718,27.28a3.132,3.132,0,0,0,3.272,3.394,2.72,2.72,0,0,0,2.788-1.657h1.77c-0.309,1.857-2.233,3.193-4.6,3.193-3.118,0-5.083-2.118-5.083-5.472s1.975-5.553,5-5.553c2.964,0,4.816,2.038,4.816,5.312V27.18h-7.964v0.1Zm6.1-1.5a2.9,2.9,0,0,0-2.984-3.062,3.069,3.069,0,0,0-3.117,3.062h6.1Zm-14.19-1.727c3.076,0.753,4.321,1.908,4.321,3.986,0,2.651-2.14,4.307-5.556,4.307-3.148,0-5.33-1.666-5.5-4.227h1.862c0.175,1.566,1.7,2.6,3.817,2.6,2.006,0,3.467-1.035,3.467-2.46,0-1.226-.874-1.978-2.87-2.48l-1.9-.482c-2.737-.683-3.951-1.858-3.951-3.826,0-2.41,2.161-4.1,5.248-4.1,2.953,0,5.093,1.707,5.175,4.137h-1.852c-0.165-1.556-1.451-2.51-3.385-2.51s-3.262.974-3.262,2.389c0,1.095.823,1.747,2.84,2.259ZM87,27.28a3.132,3.132,0,0,0,3.272,3.394,2.721,2.721,0,0,0,2.788-1.657h1.77c-0.309,1.857-2.233,3.193-4.6,3.193-3.118,0-5.083-2.118-5.083-5.472s1.975-5.553,5-5.553c2.963,0,4.815,2.038,4.815,5.312V27.18H87v0.1Zm6.1-1.5a2.9,2.9,0,0,0-2.984-3.062A3.07,3.07,0,0,0,87,25.784h6.1Zm-12.256-8.8h1.79V32.109h-1.79V16.988ZM73.62,32.21a3.926,3.926,0,0,1-3.54-1.857H70.04v5.371h-1.79V21.285h1.7v1.757h0.041a4.13,4.13,0,0,1,3.591-1.858c2.829,0,4.754,2.209,4.754,5.512S76.419,32.21,73.62,32.21ZM73.25,22.741c-1.914,0-3.22,1.607-3.22,3.956s1.307,3.956,3.22,3.956C75.2,30.654,76.5,29.1,76.5,26.7S75.2,22.741,73.25,22.741ZM61.127,32.21a3.926,3.926,0,0,1-3.539-1.857H57.547v5.371h-1.79V21.285h1.7v1.757H57.5a4.13,4.13,0,0,1,3.591-1.858c2.829,0,4.753,2.209,4.753,5.512S63.926,32.21,61.127,32.21Zm-0.37-9.468c-1.914,0-3.22,1.607-3.22,3.956s1.307,3.956,3.22,3.956c1.955,0,3.251-1.557,3.251-3.956S62.712,22.741,60.757,22.741ZM50.322,27.962H44.416l-1.492,4.147H40.979L46.453,17.62h1.831l5.474,14.489H51.814ZM47.4,19.819H47.338l-2.377,6.607h4.815ZM31.24,38H21.307a2.263,2.263,0,0,1-2.3-2.2V15.2a2.262,2.262,0,0,1,2.3-2.2H31.24a2.262,2.262,0,0,1,2.3,2.2V35.793A2.263,2.263,0,0,1,31.24,38Zm-4.849-.95A1.331,1.331,0,1,0,25,35.717,1.361,1.361,0,0,0,26.391,37.047Zm1.132-22.124H25.017V15.4h2.507V14.923Zm4.512,1.923H20.5V33.673H32.036V16.846Zm110.2,15.263h-1.79V21.285h1.79V32.109Z" transform="translate(-19 -13)"/>
</svg>
